<svg width="33" height="33" viewBox="0 0 33 33" fill="none" xmlns="http://www.w3.org/2000/svg">
<path d="M20.392 22.231L22.632 19.991C22.9337 19.6931 23.3154 19.4891 23.7308 19.4039C24.1461 19.3187 24.5773 19.3559 24.972 19.511L27.702 20.601C28.1008 20.7629 28.4427 21.0392 28.6848 21.3951C28.9268 21.751 29.058 22.1706 29.062 22.601V27.601C29.0596 27.8938 28.9981 28.1831 28.881 28.4514C28.764 28.7198 28.5938 28.9617 28.3808 29.1626C28.1678 29.3634 27.9163 29.5191 27.6415 29.6203C27.3668 29.7214 27.0744 29.7659 26.782 29.751C7.65196 28.561 3.79196 12.361 3.06196 6.16102C3.02808 5.85655 3.05904 5.54837 3.15281 5.25673C3.24658 4.96509 3.40104 4.69661 3.60603 4.46895C3.81101 4.2413 4.06188 4.05962 4.34212 3.93588C4.62236 3.81214 4.92562 3.74914 5.23196 3.75102H10.062C10.493 3.75229 10.9137 3.88248 11.2702 4.12485C11.6266 4.36721 11.9023 4.71066 12.062 5.11102L13.152 7.84102C13.3122 8.23409 13.3531 8.66566 13.2695 9.08183C13.1859 9.498 12.9816 9.88031 12.682 10.181L10.442 12.421C10.442 12.421 11.732 21.151 20.392 22.231Z" fill="#65FCF2"/>
</svg>
