<svg width="61" height="50" viewBox="0 0 61 50" fill="none" xmlns="http://www.w3.org/2000/svg">
<path d="M2.56372 49.4674L23.9803 48.9894C24.6363 48.9748 25.1635 48.4356 25.1486 47.7678L24.6704 26.3395C24.6557 25.6834 24.1165 25.1563 23.4487 25.1712L6.78879 25.543L6.78826 25.5195C6.68603 20.9386 8.86425 16.6468 12.6152 14.0195L22.9101 6.81532C24.2605 5.8709 24.5594 4.03565 23.6382 2.67305C22.1709 0.47868 19.9921 1.59398 19.4959 1.94498L9.20096 9.14912C3.82296 12.9263 0.690203 19.0915 0.836885 25.6641L0.864077 26.8825L1.3423 48.3108C1.35694 48.9669 1.89592 49.4823 2.56372 49.4674V49.4674Z" fill="#65FCF2"/>
<path d="M38.273 48.6705L59.6896 48.1926C60.3456 48.1779 60.8728 47.6387 60.8582 46.9826L60.3799 25.5543C60.3653 24.8983 59.8143 24.3713 59.1583 24.386L42.4983 24.7578L42.4978 24.7344C42.3956 20.1535 44.5738 15.8616 48.3247 13.2343L58.6197 6.03016C59.97 5.08574 60.2112 3.28694 59.3477 1.88789C58.07 -0.216942 55.7017 0.808811 55.2055 1.15981L44.9105 8.36396C39.5205 12.1297 36.3995 18.2946 36.5462 24.8672L36.5734 26.0856L37.0516 47.5139C37.0662 48.17 37.6052 48.6854 38.273 48.6705V48.6705Z" fill="#65FCF2"/>
</svg>
