<svg width="21" height="20" viewBox="0 0 21 20" fill="none" xmlns="http://www.w3.org/2000/svg">
<path d="M9.57421 19.125L1.32421 10.875C1.19921 10.75 1.11046 10.6146 1.05796 10.4687C1.00546 10.3229 0.979624 10.1667 0.980458 10C0.980458 9.83333 1.00671 9.67708 1.05921 9.53125C1.11171 9.38542 1.20004 9.25 1.32421 9.125L9.57421 0.874999C9.80338 0.645833 10.09 0.52625 10.4342 0.51625C10.7784 0.50625 11.075 0.625833 11.3242 0.874999C11.5742 1.10417 11.7046 1.39083 11.7155 1.735C11.7263 2.07917 11.6063 2.37583 11.3555 2.625L5.23046 8.75H19.1992C19.5534 8.75 19.8505 8.87 20.0905 9.11C20.3305 9.35 20.45 9.64667 20.4492 10C20.4492 10.3542 20.3296 10.6513 20.0905 10.8913C19.8513 11.1313 19.5542 11.2508 19.1992 11.25H5.23046L11.3555 17.375C11.5846 17.6042 11.7046 17.8958 11.7155 18.25C11.7263 18.6042 11.6063 18.8958 11.3555 19.125C11.1263 19.375 10.8346 19.5 10.4805 19.5C10.1263 19.5 9.82421 19.375 9.57421 19.125Z" fill="#E0E0E0"/>
</svg>
