<svg width="21" height="20" viewBox="0 0 21 20" fill="none" xmlns="http://www.w3.org/2000/svg">
<path d="M11.4258 19.125L19.6758 10.875C19.8008 10.75 19.8895 10.6146 19.942 10.4687C19.9945 10.3229 20.0204 10.1667 20.0195 10C20.0195 9.83333 19.9933 9.67708 19.9408 9.53125C19.8883 9.38542 19.8 9.25 19.6758 9.125L11.4258 0.874999C11.1966 0.645833 10.91 0.52625 10.5658 0.51625C10.2216 0.50625 9.92496 0.625833 9.67579 0.874999C9.42579 1.10417 9.29537 1.39083 9.28454 1.735C9.27371 2.07917 9.39371 2.37583 9.64454 2.625L15.7695 8.75H1.80079C1.44662 8.75 1.14954 8.87 0.909541 9.11C0.669541 9.35 0.549957 9.64667 0.55079 10C0.55079 10.3542 0.670374 10.6513 0.909541 10.8913C1.14871 11.1313 1.44579 11.2508 1.80079 11.25H15.7695L9.64454 17.375C9.41537 17.6042 9.29537 17.8958 9.28454 18.25C9.27371 18.6042 9.39371 18.8958 9.64454 19.125C9.87371 19.375 10.1654 19.5 10.5195 19.5C10.8737 19.5 11.1758 19.375 11.4258 19.125Z" fill="#E0E0E0"/>
</svg>
