<svg width="51" height="51" viewBox="0 0 51 51" fill="none" xmlns="http://www.w3.org/2000/svg">
<circle cx="25.062" cy="25.751" r="25" fill="#65FCF2"/>
<path d="M29.062 25.751C29.062 26.5421 28.8274 27.3155 28.3878 27.9733C27.9483 28.6311 27.3236 29.1437 26.5927 29.4465C25.8618 29.7492 25.0575 29.8285 24.2816 29.6741C23.5057 29.5198 22.7929 29.1388 22.2335 28.5794C21.6741 28.02 21.2931 27.3073 21.1388 26.5313C20.9845 25.7554 21.0637 24.9511 21.3664 24.2202C21.6692 23.4893 22.1819 22.8646 22.8397 22.4251C23.4975 21.9856 24.2708 21.751 25.062 21.751C26.1218 21.7543 27.1373 22.1768 27.8867 22.9262C28.6362 23.6756 29.0587 24.6911 29.062 25.751ZM37.562 20.251V31.251C37.562 33.1075 36.8245 34.888 35.5117 36.2007C34.1989 37.5135 32.4185 38.251 30.562 38.251H19.562C17.7054 38.251 15.925 37.5135 14.6122 36.2007C13.2994 34.888 12.562 33.1075 12.562 31.251V20.251C12.562 18.3945 13.2994 16.614 14.6122 15.3012C15.925 13.9885 17.7054 13.251 19.562 13.251H30.562C32.4185 13.251 34.1989 13.9885 35.5117 15.3012C36.8245 16.614 37.562 18.3945 37.562 20.251ZM31.062 25.751C31.062 24.5643 30.7101 23.4043 30.0508 22.4176C29.3915 21.4309 28.4544 20.6618 27.3581 20.2077C26.2617 19.7536 25.0553 19.6348 23.8914 19.8663C22.7275 20.0978 21.6584 20.6692 20.8193 21.5083C19.9802 22.3475 19.4088 23.4165 19.1772 24.5804C18.9457 25.7443 19.0645 26.9507 19.5187 28.0471C19.9728 29.1434 20.7418 30.0805 21.7285 30.7398C22.7152 31.3991 23.8753 31.751 25.062 31.751C26.6532 31.751 28.1794 31.1188 29.3046 29.9936C30.4298 28.8684 31.062 27.3423 31.062 25.751ZM33.062 19.251C33.062 18.9543 32.974 18.6643 32.8092 18.4176C32.6443 18.1709 32.4101 17.9787 32.136 17.8652C31.8619 17.7516 31.5603 17.7219 31.2693 17.7798C30.9783 17.8377 30.7111 17.9805 30.5013 18.1903C30.2915 18.4001 30.1487 18.6674 30.0908 18.9583C30.0329 19.2493 30.0626 19.5509 30.1761 19.825C30.2897 20.0991 30.4819 20.3334 30.7286 20.4982C30.9753 20.663 31.2653 20.751 31.562 20.751C31.9598 20.751 32.3413 20.5929 32.6226 20.3116C32.9039 20.0303 33.062 19.6488 33.062 19.251Z" fill="black"/>
</svg>
