<svg width="33" height="33" viewBox="0 0 33 33" fill="none" xmlns="http://www.w3.org/2000/svg">
<path d="M16.0619 16.7511C16.7953 16.7511 17.4233 16.4897 17.9459 15.9671C18.4677 15.4453 18.7286 14.8177 18.7286 14.0844C18.7286 13.3511 18.4677 12.7231 17.9459 12.2004C17.4233 11.6786 16.7953 11.4177 16.0619 11.4177C15.3286 11.4177 14.701 11.6786 14.1793 12.2004C13.6566 12.7231 13.3953 13.3511 13.3953 14.0844C13.3953 14.8177 13.6566 15.4453 14.1793 15.9671C14.701 16.4897 15.3286 16.7511 16.0619 16.7511ZM16.0619 30.0844C12.4842 27.0399 9.81215 24.2119 8.04593 21.6004C6.27882 18.9897 5.39526 16.5733 5.39526 14.3511C5.39526 11.0177 6.46771 8.36217 8.6126 6.38439C10.7566 4.40661 13.2397 3.41772 16.0619 3.41772C18.8842 3.41772 21.3673 4.40661 23.5113 6.38439C25.6562 8.36217 26.7286 11.0177 26.7286 14.3511C26.7286 16.5733 25.8455 18.9897 24.0793 21.6004C22.3122 24.2119 19.6397 27.0399 16.0619 30.0844Z" fill="#65FCF2"/>
</svg>
