  <svg width="112" height="96" viewBox="0 0 112 96" fill="none" xmlns="http://www.w3.org/2000/svg">
<path d="M30.2149 41.7845C28.7981 43.3089 28.915 45.6668 30.4394 47.0835C31.9637 48.5003 34.3239 48.4447 35.7407 46.9203L38.3086 44.1575C39.7253 42.6331 42.115 42.5457 43.6394 43.9625L59.4869 58.7848C61.0112 60.2016 63.3714 60.146 64.7881 58.6216C66.2049 57.0973 66.1175 54.7076 64.5932 53.2908L48.7457 38.4685C47.2213 37.0517 47.1339 34.6621 48.5507 33.1377L51.0891 30.4066C52.5059 28.8823 52.4185 26.4926 50.8941 25.0758C49.3698 23.659 46.9801 23.7464 45.5634 25.2708L30.2149 41.7845Z" fill="#65FCF2"/>
<path d="M81.968 28.5691C83.3741 27.0349 83.2408 24.6778 81.7066 23.2717C80.1724 21.8656 77.8127 21.9377 76.4066 23.4719L73.858 26.2526C72.4519 27.7868 70.0629 27.8908 68.5287 26.4847L52.5782 11.7733C51.044 10.3672 48.6843 10.4393 47.2782 11.9734C45.8721 13.5076 45.9762 15.8966 47.5104 17.3027L63.4608 32.0142C64.995 33.4203 65.0991 35.8093 63.693 37.3435L61.1737 40.0922C59.7675 41.6264 59.8716 44.0154 61.4058 45.4215C62.94 46.8276 65.329 46.7236 66.7351 45.1894L81.968 28.5691Z" fill="#65FCF2"/>
<rect x="50.3269" y="35.6619" width="8.28588" height="8.28588" rx="1.10478" transform="rotate(-48.4607 50.3269 35.6619)" fill="#65FCF2"/>
<path d="M13.8793 78.1445H8.40965V88.0356H5.24113V78.1445H1.16903V75.0122H5.24113V70.7594H8.40965V75.0122H13.8793V78.1445ZM29.9026 79.3252C29.9026 79.7589 29.8263 80.2288 29.6737 80.7348C29.5211 81.2328 29.2721 81.6986 28.9267 82.1323C28.5894 82.558 28.1436 82.9154 27.5895 83.2045C27.0433 83.4937 26.3767 83.6383 25.5896 83.6383H19.9392V80.6625H25.5896C26.0152 80.6625 26.3445 80.534 26.5775 80.277C26.8104 80.0119 26.9268 79.6866 26.9268 79.3011C26.9268 78.8915 26.7943 78.5702 26.5293 78.3373C26.2723 78.1044 25.959 77.9879 25.5896 77.9879H19.9392C19.5135 77.9879 19.1842 78.1205 18.9513 78.3855C18.7184 78.6425 18.6019 78.9638 18.6019 79.3493V83.7226C18.6019 84.1402 18.7304 84.4655 18.9875 84.6985C19.2525 84.9314 19.5778 85.0478 19.9633 85.0478H25.5896V88.0356H19.9392C19.5055 88.0356 19.0356 87.9593 18.5296 87.8067C18.0317 87.6541 17.5658 87.4092 17.1321 87.0718C16.7064 86.7265 16.349 86.2807 16.0599 85.7345C15.7707 85.1804 15.6262 84.5097 15.6262 83.7226V79.3252C15.6262 78.8915 15.7025 78.4257 15.8551 77.9277C16.0077 77.4217 16.2526 76.9559 16.59 76.5302C16.9353 76.0965 17.3811 75.735 17.9273 75.4459C18.4815 75.1567 19.1521 75.0122 19.9392 75.0122H25.5896C26.0233 75.0122 26.4891 75.0885 26.9871 75.2411C27.4931 75.3937 27.9589 75.6427 28.3846 75.988C28.8183 76.3254 29.1797 76.7711 29.4689 77.3253C29.758 77.8715 29.9026 78.5381 29.9026 79.3252ZM44.6248 88.0356H36.1312C35.6975 88.0356 35.2236 87.9593 34.7096 87.8067C34.1956 87.6541 33.7177 87.4052 33.2759 87.0598C32.8422 86.7064 32.4768 86.2526 32.1796 85.6984C31.8905 85.1362 31.7459 84.4495 31.7459 83.6383V79.3975C31.7459 79.1003 31.778 78.7871 31.8423 78.4578C31.9146 78.1285 32.023 77.8032 32.1676 77.4819C32.3121 77.1526 32.4969 76.8394 32.7217 76.5422C32.9547 76.245 33.2318 75.984 33.553 75.7591C33.8823 75.5342 34.2598 75.3535 34.6855 75.217C35.1112 75.0804 35.5931 75.0122 36.1312 75.0122H44.6248V78.1445H36.1312C35.7216 78.1445 35.4084 78.249 35.1915 78.4578C34.9827 78.6666 34.8783 78.9879 34.8783 79.4216V83.6383C34.8783 84.0479 34.9867 84.3611 35.2036 84.578C35.4204 84.7948 35.7377 84.9033 36.1553 84.9033H44.6248V88.0356ZM61.6963 88.0356H58.5639V79.3975C58.5639 78.9879 58.4595 78.6787 58.2506 78.4698C58.0418 78.253 57.7286 78.1445 57.3109 78.1445H51.6606V75.0122H57.3109C57.6081 75.0122 57.9213 75.0483 58.2506 75.1206C58.5799 75.1849 58.9052 75.2893 59.2265 75.4338C59.5558 75.5784 59.869 75.7672 60.1662 76.0001C60.4634 76.225 60.7244 76.5021 60.9493 76.8314C61.1742 77.1526 61.3549 77.5261 61.4915 77.9518C61.628 78.3775 61.6963 78.8594 61.6963 79.3975V88.0356ZM50.3956 88.0356H47.2632V69.5064H50.3956V88.0356ZM76.3341 78.1445H70.8645V88.0356H67.696V78.1445H63.6239V75.0122H67.696V70.7594H70.8645V75.0122H76.3341V78.1445ZM92.6345 86.4574C92.6345 86.6823 92.5944 86.8911 92.5141 87.0839C92.4338 87.2766 92.3213 87.4453 92.1767 87.5899C92.0402 87.7264 91.8755 87.8349 91.6828 87.9152C91.4981 87.9955 91.2973 88.0356 91.0804 88.0356H83.9964C83.6109 88.0356 83.1972 87.9915 82.7555 87.9031C82.3218 87.8148 81.8921 87.6742 81.4664 87.4815C81.0407 87.2807 80.6271 87.0317 80.2255 86.7345C79.8319 86.4293 79.4866 86.0639 79.1894 85.6382C78.8922 85.2045 78.6513 84.7065 78.4665 84.1443C78.2899 83.582 78.2015 82.9475 78.2015 82.2407V75.0122H81.3339V82.2407C81.3339 82.6504 81.4022 83.0198 81.5387 83.3491C81.6833 83.6704 81.876 83.9475 82.117 84.1804C82.3579 84.4133 82.639 84.594 82.9603 84.7225C83.2896 84.843 83.643 84.9033 84.0205 84.9033H89.5022V75.0122H92.6345V86.4574ZM109.814 86.4574C109.814 86.6823 109.774 86.8911 109.694 87.0839C109.614 87.2766 109.501 87.4453 109.357 87.5899C109.22 87.7264 109.055 87.8349 108.863 87.9152C108.678 87.9955 108.477 88.0356 108.26 88.0356H101.176C100.791 88.0356 100.377 87.9915 99.9354 87.9031C99.5017 87.8148 99.072 87.6742 98.6463 87.4815C98.2206 87.2807 97.807 87.0317 97.4054 86.7345C97.0119 86.4293 96.6665 86.0639 96.3693 85.6382C96.0721 85.2045 95.8312 84.7065 95.6465 84.1443C95.4698 83.582 95.3814 82.9475 95.3814 82.2407V75.0122H98.5138V82.2407C98.5138 82.6504 98.5821 83.0198 98.7186 83.3491C98.8632 83.6704 99.0559 83.9475 99.2969 84.1804C99.5378 84.4133 99.8189 84.594 100.14 84.7225C100.47 84.843 100.823 84.9033 101.2 84.9033H106.682V75.0122H109.814V86.4574Z" fill="#65FCF2"/>
</svg>
