<svg width="41" height="41" viewBox="0 0 41 41" fill="none" xmlns="http://www.w3.org/2000/svg">
<path d="M28.8135 1.27075H12.601C11.3416 1.27075 10.0822 2.48075 10.0828 3.69013L10.0822 36.3514C10.0822 37.5608 11.3416 38.7708 12.601 38.7708H28.8135C30.0735 38.7708 31.3322 37.5608 31.3322 36.3514V3.69013C31.3322 2.48075 30.0728 1.27075 28.8135 1.27075ZM27.4947 3.32138C27.8203 3.32138 28.0853 3.58325 28.0853 3.90763C28.0853 4.23075 27.8203 4.49388 27.4947 4.49388C27.1691 4.49388 26.9053 4.23075 26.9053 3.90763C26.9055 3.83042 26.9209 3.75401 26.9506 3.68275C26.9803 3.61149 27.0238 3.54679 27.0785 3.49235C27.1333 3.4379 27.1982 3.39478 27.2696 3.36544C27.341 3.3361 27.4175 3.32113 27.4947 3.32138ZM19.1128 3.63513H22.3016C22.3997 3.63513 22.4778 3.76513 22.4778 3.927C22.4778 4.0895 22.3997 4.22138 22.3016 4.22138H19.1128C19.016 4.22138 18.9366 4.0895 18.9366 3.927C18.9366 3.76575 19.016 3.63513 19.1128 3.63513ZM22.921 36.5733C22.9208 36.6312 22.9092 36.6886 22.8868 36.7421C22.8645 36.7955 22.8317 36.8441 22.7906 36.8849C22.7494 36.9257 22.7006 36.958 22.6469 36.9799C22.5933 37.0018 22.5358 37.013 22.4778 37.0126H18.9366C18.8786 37.013 18.8212 37.0018 18.7675 36.9799C18.7138 36.958 18.665 36.9257 18.6238 36.8849C18.5827 36.8441 18.55 36.7955 18.5276 36.7421C18.5052 36.6886 18.4936 36.6312 18.4935 36.5733V35.6945C18.4935 35.4514 18.6916 35.2551 18.9366 35.2551H22.4778C22.7228 35.2551 22.921 35.4514 22.921 35.6945V36.5733ZM29.5616 34.0833H11.8528V5.95825H29.561V34.0833H29.5616Z" fill="#65FCF2"/>
<path d="M13.578 10.3526H15.5311C15.5953 10.3528 15.6588 10.3403 15.7181 10.3158C15.7774 10.2914 15.8313 10.2555 15.8767 10.2102C15.9221 10.165 15.9581 10.1112 15.9827 10.0519C16.0072 9.99271 16.0199 9.92922 16.0199 9.86509V7.91197C16.0199 7.78234 15.9684 7.65803 15.8767 7.56637C15.7851 7.47471 15.6608 7.42322 15.5311 7.42322H13.578C13.5139 7.42322 13.4504 7.43587 13.3912 7.46045C13.3319 7.48502 13.2781 7.52104 13.2329 7.56644C13.1876 7.61185 13.1517 7.66574 13.1273 7.72503C13.1028 7.78432 13.0904 7.84784 13.0905 7.91197V9.86509C13.0905 10.1345 13.3086 10.3526 13.578 10.3526Z" fill="#65FCF2"/>
<path d="M17.6791 10.3526H19.6322C19.6963 10.3528 19.7599 10.3403 19.8192 10.3158C19.8784 10.2914 19.9323 10.2555 19.9777 10.2102C20.0231 10.165 20.0592 10.1112 20.0837 10.0519C20.1083 9.99271 20.121 9.92922 20.121 9.86509V7.91197C20.121 7.78234 20.0695 7.65803 19.9778 7.56637C19.8862 7.47471 19.7618 7.42322 19.6322 7.42322H17.6791C17.615 7.42322 17.5515 7.43587 17.4922 7.46045C17.433 7.48502 17.3792 7.52104 17.3339 7.56644C17.2886 7.61185 17.2528 7.66574 17.2283 7.72503C17.2039 7.78432 17.1914 7.84784 17.1916 7.91197V9.86509C17.1916 10.1345 17.4103 10.3526 17.6791 10.3526Z" fill="#65FCF2"/>
<path d="M21.7811 10.3526H23.7343C23.7984 10.3528 23.8619 10.3403 23.9212 10.3158C23.9805 10.2914 24.0344 10.2555 24.0798 10.2102C24.1252 10.165 24.1612 10.1112 24.1858 10.0519C24.2104 9.99271 24.223 9.92922 24.223 9.86509V7.91197C24.223 7.78234 24.1715 7.65803 24.0799 7.56637C23.9882 7.47471 23.8639 7.42322 23.7343 7.42322H21.7811C21.717 7.42322 21.6535 7.43587 21.5943 7.46045C21.5351 7.48502 21.4813 7.52104 21.436 7.56644C21.3907 7.61185 21.3548 7.66574 21.3304 7.72503C21.306 7.78432 21.2935 7.84784 21.2936 7.91197V9.86509C21.2936 10.1345 21.5118 10.3526 21.7811 10.3526Z" fill="#65FCF2"/>
<path d="M25.8822 10.3526H27.8353C27.8995 10.3528 27.963 10.3403 28.0223 10.3158C28.0816 10.2914 28.1355 10.2555 28.1809 10.2102C28.2263 10.165 28.2623 10.1112 28.2869 10.0519C28.3114 9.99271 28.3241 9.92922 28.3241 9.86509V7.91197C28.3241 7.78234 28.2726 7.65803 28.1809 7.56637C28.0893 7.47471 27.965 7.42322 27.8353 7.42322H25.8822C25.8181 7.42322 25.7546 7.43587 25.6954 7.46045C25.6361 7.48502 25.5823 7.52104 25.5371 7.56644C25.4918 7.61185 25.4559 7.66574 25.4315 7.72503C25.407 7.78432 25.3946 7.84784 25.3947 7.91197V9.86509C25.3947 10.1345 25.6135 10.3526 25.8822 10.3526Z" fill="#65FCF2"/>
<path d="M13.578 32.9114H15.5311C15.5953 32.9116 15.6588 32.8991 15.7181 32.8747C15.7774 32.8503 15.8313 32.8144 15.8767 32.7691C15.9221 32.7238 15.9581 32.67 15.9827 32.6108C16.0072 32.5516 16.0199 32.4881 16.0199 32.4239V30.4702C16.0199 30.406 16.0072 30.3425 15.9827 30.2832C15.9581 30.224 15.9221 30.1701 15.8767 30.1248C15.8313 30.0795 15.7774 30.0435 15.7181 30.019C15.6588 29.9945 15.5953 29.982 15.5311 29.9821H13.578C13.5139 29.9821 13.4505 29.9947 13.3913 30.0192C13.3321 30.0438 13.2784 30.0797 13.2331 30.1251C13.1878 30.1704 13.1519 30.2242 13.1274 30.2834C13.103 30.3426 13.0904 30.4061 13.0905 30.4702V32.4239C13.0905 32.6927 13.3086 32.9114 13.578 32.9114Z" fill="#65FCF2"/>
<path d="M17.6791 32.9114H19.6322C19.6963 32.9116 19.7599 32.8991 19.8192 32.8747C19.8784 32.8503 19.9323 32.8144 19.9777 32.7691C20.0231 32.7238 20.0592 32.67 20.0837 32.6108C20.1083 32.5516 20.121 32.4881 20.121 32.4239V30.4702C20.121 30.406 20.1083 30.3425 20.0837 30.2832C20.0592 30.224 20.0232 30.1701 19.9778 30.1248C19.9324 30.0795 19.8785 30.0435 19.8192 30.019C19.7599 29.9945 19.6964 29.982 19.6322 29.9821H17.6791C17.615 29.9821 17.5516 29.9947 17.4924 30.0192C17.4332 30.0438 17.3794 30.0797 17.3342 30.1251C17.2889 30.1704 17.253 30.2242 17.2285 30.2834C17.2041 30.3426 17.1915 30.4061 17.1916 30.4702V32.4239C17.1916 32.6927 17.4103 32.9114 17.6791 32.9114Z" fill="#65FCF2"/>
<path d="M21.7811 32.9114H23.7343C23.7984 32.9116 23.8619 32.8991 23.9212 32.8747C23.9805 32.8503 24.0344 32.8144 24.0798 32.7691C24.1252 32.7238 24.1612 32.67 24.1858 32.6108C24.2104 32.5516 24.223 32.4881 24.223 32.4239V30.4702C24.223 30.406 24.2104 30.3425 24.1858 30.2832C24.1612 30.224 24.1252 30.1701 24.0798 30.1248C24.0344 30.0795 23.9805 30.0435 23.9213 30.019C23.862 29.9945 23.7984 29.982 23.7343 29.9821H21.7811C21.7171 29.9821 21.6536 29.9947 21.5944 30.0192C21.5353 30.0438 21.4815 30.0797 21.4362 30.1251C21.3909 30.1704 21.355 30.2242 21.3306 30.2834C21.3061 30.3426 21.2936 30.4061 21.2936 30.4702V32.4239C21.2936 32.6927 21.5118 32.9114 21.7811 32.9114Z" fill="#65FCF2"/>
<path d="M25.8822 32.9114H27.8353C27.8995 32.9116 27.963 32.8991 28.0223 32.8747C28.0816 32.8503 28.1355 32.8144 28.1809 32.7691C28.2263 32.7238 28.2623 32.67 28.2869 32.6108C28.3114 32.5516 28.3241 32.4881 28.3241 32.4239V30.4702C28.3241 30.406 28.3114 30.3425 28.2869 30.2832C28.2623 30.224 28.2263 30.1701 28.1809 30.1248C28.1355 30.0795 28.0816 30.0435 28.0223 30.019C27.963 29.9945 27.8995 29.982 27.8353 29.9821H25.8822C25.8181 29.9821 25.7547 29.9947 25.6955 30.0192C25.6363 30.0438 25.5826 30.0797 25.5373 30.1251C25.492 30.1704 25.4561 30.2242 25.4316 30.2834C25.4072 30.3426 25.3946 30.4061 25.3947 30.4702V32.4239C25.3947 32.6927 25.6135 32.9114 25.8822 32.9114Z" fill="#65FCF2"/>
<path d="M13.578 14.1132H15.5311C15.8018 14.1132 16.0199 13.8945 16.0199 13.6245V11.6713C16.0199 11.4026 15.8011 11.1838 15.5311 11.1838H13.578C13.4487 11.1838 13.3247 11.2352 13.2333 11.3266C13.1419 11.418 13.0905 11.542 13.0905 11.6713V13.6245C13.0904 13.6886 13.1028 13.7521 13.1273 13.8114C13.1517 13.8707 13.1876 13.9246 13.2329 13.97C13.2781 14.0154 13.3319 14.0514 13.3912 14.076C13.4504 14.1006 13.5139 14.1132 13.578 14.1132Z" fill="#65FCF2"/>
<path d="M17.6791 14.1132H19.6322C19.9028 14.1132 20.121 13.8945 20.121 13.6245V11.6713C20.121 11.4026 19.9022 11.1838 19.6322 11.1838H17.6791C17.5498 11.1838 17.4258 11.2352 17.3344 11.3266C17.243 11.418 17.1916 11.542 17.1916 11.6713V13.6245C17.1916 13.8945 17.4103 14.1132 17.6791 14.1132Z" fill="#65FCF2"/>
</svg>
