<svg width="41" height="41" viewBox="0 0 41 41" fill="none" xmlns="http://www.w3.org/2000/svg">
<path d="M20.7072 5.29565C20.0513 5.29565 19.4017 5.42485 18.7957 5.67588C18.1897 5.9269 17.639 6.29483 17.1752 6.75866C16.7114 7.22248 16.3435 7.77313 16.0924 8.37915C15.8414 8.98517 15.7122 9.6347 15.7122 10.2907C15.7122 10.9466 15.8414 11.5961 16.0924 12.2022C16.3435 12.8082 16.7114 13.3588 17.1752 13.8227C17.639 14.2865 18.1897 14.6544 18.7957 14.9054C19.4017 15.1565 20.0513 15.2857 20.7072 15.2857C22.032 15.2857 23.3025 14.7594 24.2392 13.8227C25.176 12.8859 25.7022 11.6154 25.7022 10.2907C25.7022 8.9659 25.176 7.6954 24.2392 6.75866C23.3025 5.82191 22.032 5.29565 20.7072 5.29565Z" fill="#65FCF2"/>
<path d="M31.9573 7.79065C30.9627 7.79065 30.0089 8.18574 29.3056 8.889C28.6024 9.59226 28.2073 10.5461 28.2073 11.5406C28.2073 12.5352 28.6024 13.489 29.3056 14.1923C30.0089 14.8956 30.9627 15.2906 31.9573 15.2906C32.9518 15.2906 33.9057 14.8956 34.6089 14.1923C35.3122 13.489 35.7073 12.5352 35.7073 11.5406C35.7073 10.5461 35.3122 9.59226 34.6089 8.889C33.9057 8.18574 32.9518 7.79065 31.9573 7.79065Z" fill="#65FCF2"/>
<path d="M9.45728 7.79065C8.46271 7.79065 7.50889 8.18574 6.80563 8.889C6.10236 9.59226 5.70728 10.5461 5.70728 11.5406C5.70728 12.5352 6.10236 13.489 6.80563 14.1923C7.50889 14.8956 8.46271 15.2906 9.45728 15.2906C10.4518 15.2906 11.4057 14.8956 12.1089 14.1923C12.8122 13.489 13.2073 12.5352 13.2073 11.5406C13.2073 10.5461 12.8122 9.59226 12.1089 8.889C11.4057 8.18574 10.4518 7.79065 9.45728 7.79065Z" fill="#65FCF2"/>
<path d="M13.2073 20.2731C13.2119 19.6131 13.4773 18.9817 13.9457 18.5167C14.414 18.0516 15.0473 17.7906 15.7073 17.7906H25.7073C26.3703 17.7906 27.0062 18.054 27.475 18.5229C27.9439 18.9917 28.2073 19.6276 28.2073 20.2906V27.7906C28.2071 28.5774 28.084 29.3594 27.8423 30.1081C27.2887 31.8049 26.1484 33.2487 24.6261 34.1804C23.1037 35.112 21.2992 35.4705 19.5363 35.1913C17.7735 34.9122 16.168 34.0137 15.008 32.6573C13.848 31.3009 13.2095 29.5754 13.2073 27.7906V20.2906V20.2731Z" fill="#65FCF2"/>
<path d="M10.7073 20.2906C10.7073 19.3781 10.9498 18.5256 11.3773 17.7906H5.70728C5.04423 17.7906 4.40835 18.054 3.93951 18.5229C3.47067 18.9917 3.20728 19.6276 3.20728 20.2906V26.5407C3.20694 27.5639 3.45784 28.5716 3.93796 29.4752C4.41807 30.3789 5.11272 31.1508 5.96088 31.7232C6.80905 32.2957 7.78479 32.6511 8.80242 32.7583C9.82005 32.8655 10.8484 32.7213 11.7973 32.3382C11.0777 30.9296 10.7041 29.3699 10.7073 27.7881V20.2906Z" fill="#65FCF2"/>
<path d="M30.708 20.2906V27.7907C30.708 29.4282 30.3155 30.9732 29.618 32.3382C30.5668 32.7213 31.5952 32.8655 32.6128 32.7583C33.6305 32.6511 34.6062 32.2957 35.4544 31.7232C36.3025 31.1508 36.9972 30.3789 37.4773 29.4752C37.9574 28.5716 38.2083 27.5639 38.208 26.5407V20.2906C38.208 19.6276 37.9446 18.9917 37.4757 18.5229C37.0069 18.054 36.371 17.7906 35.708 17.7906H30.038C30.463 18.5256 30.708 19.3781 30.708 20.2906Z" fill="#65FCF2"/>
</svg>
