<svg width="41" height="41" viewBox="0 0 41 41" fill="none" xmlns="http://www.w3.org/2000/svg">
<path d="M5.70728 30.2906H35.7073C36.1493 30.2906 36.5732 30.4662 36.8858 30.7788C37.1984 31.0913 37.3739 31.5152 37.3739 31.9573C37.3739 32.3993 37.1984 32.8232 36.8858 33.1358C36.5732 33.4483 36.1493 33.6239 35.7073 33.6239H5.70728C5.26525 33.6239 4.84133 33.4483 4.52877 33.1358C4.21621 32.8232 4.04061 32.3993 4.04061 31.9573C4.04061 31.5152 4.21621 31.0913 4.52877 30.7788C4.84133 30.4662 5.26525 30.2906 5.70728 30.2906ZM7.37394 6.95728H34.0406C34.9247 6.95728 35.7725 7.30846 36.3976 7.93359C37.0228 8.55871 37.3739 9.40655 37.3739 10.2906V26.9573C37.3739 27.3993 37.1984 27.8232 36.8858 28.1358C36.5732 28.4483 36.1493 28.6239 35.7073 28.6239H5.70728C5.26525 28.6239 4.84133 28.4483 4.52877 28.1358C4.21621 27.8232 4.04061 27.3993 4.04061 26.9573V10.2906C4.04061 9.40655 4.3918 8.55871 5.01692 7.93359C5.64204 7.30846 6.48989 6.95728 7.37394 6.95728ZM34.0406 25.2906V10.2906H7.37394V25.2906H34.0406Z" fill="#65FCF2"/>
<path d="M12.3739 21.124L20.7073 16.124L23.2073 18.624L30.7073 13.624" stroke="#65FCF2" stroke-linecap="round"/>
</svg>
