<svg width="41" height="41" viewBox="0 0 41 41" fill="none" xmlns="http://www.w3.org/2000/svg">
<path d="M35.1213 12.5721C34.8609 12.5199 34.6656 12.4939 34.5354 12.4939C33.5719 12.4939 32.7385 12.8197 32.0354 13.4714C30.4469 12.7676 28.9625 12.1941 27.5823 11.751C25.3167 11.0211 22.9469 10.4215 20.4729 9.95233C20.2385 9.32671 19.887 8.80537 19.4182 8.3883C20.0693 5.31238 20.9417 2.5232 22.0354 0.020752C25.3167 0.255356 28.331 1.20681 31.0784 2.8751C33.8258 4.5434 36.0458 6.73304 37.7385 9.44402C36.775 10.4867 35.9026 11.5294 35.1213 12.5721ZM16.9963 7.48898C16.3193 7.48898 15.6812 7.67145 15.0823 8.03639C12.9729 6.47236 10.8505 5.14294 8.71509 4.04812C11.9443 1.59781 15.564 0.255356 19.5745 0.020752C18.5588 2.28859 17.7385 4.778 17.1135 7.48898H16.9963ZM3.44165 9.91323C4.32707 8.4274 5.44686 7.01977 6.80103 5.69035C8.57186 6.6027 10.4078 7.72359 12.3088 9.05301C8.94946 8.97481 5.99373 9.26155 3.44165 9.91323ZM13.2463 11.4773C13.2984 12.2853 13.5784 12.9957 14.0862 13.6082C14.594 14.2208 15.2255 14.6314 15.9807 14.8399C15.8245 16.6646 15.7463 18.3981 15.7463 20.0403C15.7463 21.1873 15.7854 22.5036 15.8635 23.9895C15.2906 24.1719 14.7828 24.4847 14.3401 24.9279C12.9338 24.3805 11.5797 23.7549 10.2776 23.0511C10.564 22.4776 10.7073 21.8911 10.7073 21.2915C10.7073 20.2488 10.3427 19.3626 9.61353 18.6327C8.88436 17.9028 7.99894 17.5379 6.95728 17.5379C5.81144 17.5379 4.86092 17.981 4.10571 18.8673C3.01196 17.8767 2.0354 16.8471 1.17603 15.7783C1.4104 14.6574 1.76196 13.5496 2.23071 12.4548C5.4078 11.5685 9.07967 11.2426 13.2463 11.4773ZM3.24634 21.6043C3.32446 22.5688 3.7216 23.3834 4.43774 24.0481C5.15389 24.7128 5.99373 25.0452 6.95728 25.0452C7.24373 25.0452 7.55623 24.9931 7.89478 24.8888C9.56144 25.8533 11.3453 26.6874 13.2463 27.3912V27.5476C13.2463 28.5643 13.5914 29.431 14.2815 30.1478C14.9716 30.8647 15.8245 31.2492 16.8401 31.3013C17.4911 34.4815 18.4026 37.388 19.5745 40.0208C16.9703 39.8643 14.5094 39.2322 12.1917 38.1244C9.87394 37.0165 7.87524 35.5763 6.19556 33.8037C4.51587 32.0312 3.18123 29.9458 2.19165 27.5476C1.20207 25.1495 0.707275 22.647 0.707275 20.0403C0.707275 20.0142 0.720296 19.6623 0.746338 18.9846C1.4755 19.8969 2.30884 20.7702 3.24634 21.6043ZM20.2776 29.3072C22.1526 29.646 24.0406 29.8676 25.9417 29.9719C26.1239 30.4932 26.4104 30.9755 26.801 31.4186C26.2021 34.1557 25.8375 36.8145 25.7073 39.3951C24.3792 39.734 23.1552 39.9426 22.0354 40.0208C20.8114 37.2316 19.8609 34.0774 19.1838 30.5584C19.6526 30.2456 20.0172 29.8285 20.2776 29.3072ZM32.387 31.184C32.7255 30.7669 32.9599 30.3238 33.0901 29.8546C34.9911 29.6982 36.8271 29.4505 38.5979 29.1117C37.3479 31.562 35.6292 33.6864 33.4417 35.4851C33.2073 34.1296 32.8557 32.6959 32.387 31.184ZM26.0198 27.4694C24.1969 27.3652 22.4 27.1306 20.6292 26.7656C20.3427 25.4623 19.6005 24.5629 18.4026 24.0677C18.2984 22.5297 18.2463 21.1873 18.2463 20.0403C18.2463 18.3199 18.3245 16.5343 18.4807 14.6835C18.5328 14.6835 18.5979 14.6574 18.676 14.6053C18.7542 14.5532 18.8062 14.5271 18.8323 14.5271C19.8479 15.5177 20.7333 16.43 21.4885 17.2642C23.7542 19.7666 25.6812 22.6079 27.2698 25.7881C26.6969 26.2312 26.2802 26.7917 26.0198 27.4694ZM29.4963 32.5525C29.5484 32.5525 29.6917 32.5395 29.926 32.5134C30.3687 34.1035 30.6943 35.6806 30.9026 37.2446C30.1474 37.6877 29.2359 38.1309 28.1682 38.574C28.3505 36.5408 28.663 34.5206 29.1057 32.5134C29.314 32.5395 29.4443 32.5525 29.4963 32.5525ZM29.301 23.2075C29.275 23.2596 29.2424 23.3378 29.2034 23.4421C29.1643 23.5463 29.1318 23.6245 29.1057 23.6767C27.4651 20.705 25.538 18.0071 23.3245 15.5828C22.5172 14.6705 21.5536 13.6799 20.4338 12.6112C20.4599 12.6112 20.4794 12.5916 20.4924 12.5525L20.512 12.4939C22.6995 12.937 24.7958 13.4844 26.801 14.1361C28.025 14.5271 29.3661 15.0484 30.8245 15.7001C30.7724 15.9608 30.7463 16.1563 30.7463 16.2866C30.7463 17.0687 30.9807 17.7855 31.4495 18.4372C30.5901 20.0794 29.8739 21.6695 29.301 23.2075ZM31.137 25.4753C31.4495 24.5629 31.6057 24.0937 31.6057 24.0677C32.1265 22.7643 32.7776 21.3697 33.5588 19.8839C33.8974 19.9882 34.2229 20.0403 34.5354 20.0403C35.4208 20.0403 36.2151 19.7405 36.9182 19.141C38.1943 20.0273 39.4443 21.0178 40.6682 22.1126C40.512 23.5985 40.1995 25.0322 39.7307 26.4137C37.5953 26.8569 35.3427 27.1697 32.9729 27.3521C32.6344 26.518 32.0224 25.8924 31.137 25.4753ZM38.2854 16.2475C38.2854 15.3873 37.9989 14.6053 37.426 13.9015C37.9729 13.1977 38.5198 12.559 39.0667 11.9856C40.0042 14.1231 40.551 16.3257 40.7073 18.5936C39.8479 17.9419 39.0146 17.3554 38.2073 16.834C38.2594 16.5994 38.2854 16.4039 38.2854 16.2475Z" fill="#65FCF2"/>
</svg>
