<svg width="41" height="41" viewBox="0 0 41 41" fill="none" xmlns="http://www.w3.org/2000/svg">
<path d="M18.7064 9.02069C17.2084 9.02069 15.8224 9.49069 14.6824 10.2907C14.6084 9.14469 14.3464 8.15069 13.8644 7.27069C15.3868 6.42817 17.1028 5.99749 18.8426 6.02119C20.5825 6.0449 22.286 6.52217 23.7849 7.40585C25.2839 8.28953 26.5263 9.54903 27.3894 11.0599C28.2525 12.5707 28.7065 14.2807 28.7064 16.0207H33.2084C35.1404 16.0187 36.7084 17.5867 36.7084 19.5187V30.5187C36.7086 30.9787 36.6182 31.4342 36.4423 31.8592C36.2664 32.2842 36.0085 32.6703 35.6833 32.9956C35.358 33.3208 34.9718 33.5788 34.5468 33.7547C34.1218 33.9306 33.6663 34.021 33.2064 34.0207H22.2064C21.2781 34.0207 20.3879 33.6519 19.7315 32.9956C19.0751 32.3392 18.7064 31.4489 18.7064 30.5207V26.0207C17.3151 26.0225 15.939 25.7329 14.6664 25.1707C14.6924 24.4907 14.7064 23.7767 14.7064 23.0207V22.8967C14.7064 22.5627 14.7064 22.1787 14.7004 21.7627C15.8364 22.5547 17.2164 23.0207 18.7064 23.0207V19.5207C18.7064 17.5887 20.2744 16.0207 22.2064 16.0207H25.7064C25.7064 14.1642 24.9689 12.3837 23.6561 11.0709C22.3434 9.75819 20.5629 9.02069 18.7064 9.02069ZM28.2484 19.0207C27.7636 20.5565 26.916 21.9528 25.7773 23.0916C24.6385 24.2303 23.2421 25.078 21.7064 25.5627V30.5207C21.7064 30.7967 21.9304 31.0207 22.2064 31.0207H33.2064C33.339 31.0207 33.4662 30.968 33.5599 30.8742C33.6537 30.7805 33.7064 30.6533 33.7064 30.5207V19.5207C33.7064 19.3881 33.6537 19.2609 33.5599 19.1671C33.4662 19.0734 33.339 19.0207 33.2064 19.0207H28.2484ZM25.0324 19.0207H22.2064C22.0738 19.0207 21.9466 19.0734 21.8528 19.1671C21.7591 19.2609 21.7064 19.3881 21.7064 19.5207V22.3467C23.1641 21.6528 24.3385 20.4784 25.0324 19.0207Z" fill="#65FCF2"/>
<path d="M9.86728 4.27067C10.0336 4.41562 10.1473 4.61152 10.1908 4.82784C10.2342 5.04416 10.2048 5.26877 10.1073 5.46667C10.0903 5.52518 10.0816 5.58576 10.0813 5.64667C10.0813 5.77267 10.1133 6.01267 10.4153 6.31267C10.5613 6.45867 10.6733 6.56267 10.7953 6.67667C10.8953 6.76867 11.0013 6.86467 11.1353 6.99667C11.3953 7.24467 11.6693 7.53667 11.9153 7.90267C12.4253 8.66867 12.7073 9.62667 12.7073 11.0207C12.7073 12.7267 12.0753 14.1807 11.0893 15.0727L11.2173 15.2207C11.7773 15.9087 12.1033 16.8007 12.3073 17.6807C12.7073 19.4207 12.7073 21.5127 12.7073 22.9707V23.0207C12.7073 28.5947 11.9493 31.7567 11.1153 33.5647C10.6953 34.4747 10.2493 35.0547 9.86328 35.4187C9.70635 35.5692 9.5333 35.702 9.34728 35.8147C9.2621 35.866 9.17318 35.9108 9.08127 35.9487C9.08127 35.9487 8.85528 36.0207 8.70728 36.0207C8.55928 36.0207 8.33328 35.9487 8.33328 35.9487C8.24037 35.913 8.15126 35.8681 8.06728 35.8147C7.88125 35.702 7.70821 35.5692 7.55128 35.4187C7.16528 35.0527 6.71928 34.4747 6.29928 33.5647C5.46528 31.7567 4.70728 28.5947 4.70728 23.0207V22.9707C4.70728 21.5107 4.70728 19.4207 5.10728 17.6807C5.31128 16.8007 5.63728 15.9087 6.19728 15.2207C6.23728 15.1707 6.28128 15.1207 6.32528 15.0727C5.33928 14.1807 4.70728 12.7267 4.70728 11.0207C4.70728 10.3687 4.88128 9.59067 5.12128 8.87267C5.36128 8.15267 5.69728 7.40867 6.08528 6.80867C6.54728 6.02867 7.19728 5.37467 7.70128 4.93467C7.97759 4.69166 8.26596 4.46271 8.56528 4.24867L8.65328 4.18867C8.83667 4.06643 9.05531 4.00819 9.27521 4.02302C9.49511 4.03785 9.70396 4.12491 9.86928 4.27067H9.86728Z" fill="#65FCF2"/>
</svg>
