<svg width="41" height="43" viewBox="0 0 41 43" fill="none" xmlns="http://www.w3.org/2000/svg">
<g clip-path="url(#clip0_24_750)">
<path d="M20.7073 22.2906C20.6126 22.3475 20.087 22.5842 19.1306 23.0009C18.1741 23.4175 17.6202 23.6827 17.4686 23.7963C18.1883 24.8759 18.8796 25.8039 19.5425 26.5804C19.372 26.9592 19.1258 27.8399 18.8039 29.2225C18.4819 30.605 18.1363 32.196 17.7669 33.9952C17.3976 35.7944 17.2035 36.7319 17.1845 36.8077C17.1656 36.7509 16.9667 36.6751 16.588 36.5804C16.2092 36.4857 15.8067 36.3105 15.3806 36.0549C14.9544 35.7992 14.6751 35.4441 14.5425 34.9895C14.2395 33.9668 13.9838 32.4327 13.7755 30.3872C13.5671 28.3418 13.4061 26.5189 13.2925 24.9185C13.1789 23.3181 13.0558 22.4327 12.9232 22.2622C12.7906 22.3191 12.4923 22.4706 12.0283 22.7168C11.5643 22.963 11.0861 23.1808 10.5936 23.3702C10.0255 23.5785 9.24894 23.8626 8.26409 24.2225C7.27925 24.5823 6.50273 24.8711 5.93455 25.0889C5.36637 25.3067 4.73663 25.5672 4.04534 25.8702C3.35406 26.1732 2.79534 26.481 2.36921 26.7935C1.94307 27.106 1.61637 27.4232 1.38909 27.7452C0.934548 28.9573 0.707275 33.8058 0.707275 42.2906H40.7073C40.7073 40.1694 40.6552 37.4043 40.551 33.9952C40.4469 30.5861 40.2717 28.5028 40.0255 27.7452C39.7982 27.4232 39.4715 27.106 39.0453 26.7935C38.6192 26.481 38.0605 26.1732 37.3692 25.8702C36.6779 25.5672 36.0482 25.3067 35.48 25.0889C34.9118 24.8711 34.1353 24.5823 33.1505 24.2225C32.1656 23.8626 31.3891 23.5785 30.8209 23.3702C30.3285 23.1808 29.8503 22.963 29.3863 22.7168C28.9222 22.4706 28.6239 22.3191 28.4914 22.2622C28.3588 22.4327 28.2499 23.3181 28.1647 24.9185C28.0794 26.5189 27.9469 28.3418 27.7669 30.3872C27.587 32.4327 27.3455 33.9668 27.0425 34.9895C26.9099 35.4441 26.6306 35.7992 26.2044 36.0549C25.7783 36.3105 25.3758 36.4857 24.997 36.5804C24.6183 36.6751 24.4194 36.7509 24.4005 36.8077C23.2262 31.0691 22.3834 27.66 21.872 26.5804C22.5349 25.8039 23.2262 24.8759 23.9459 23.7963C23.7944 23.6827 23.2404 23.4175 22.284 23.0009C21.3275 22.5842 20.802 22.3475 20.7073 22.2906ZM20.7073 2.29065C23.2262 2.29065 25.3711 3.17607 27.1419 4.9469C28.9128 6.71773 29.7982 8.86262 29.7982 11.3816C29.7982 13.9005 28.9128 16.0454 27.1419 17.8162C25.3711 19.5871 23.2262 20.4725 20.7073 20.4725C18.1883 20.4725 16.0435 19.5871 14.2726 17.8162C12.5018 16.0454 11.6164 13.9005 11.6164 11.3816C11.6164 8.86262 12.5018 6.71773 14.2726 4.9469C16.0435 3.17607 18.1883 2.29065 20.7073 2.29065ZM28.4345 11.4384C27.6959 11.5899 26.64 11.5189 25.2669 11.2253C23.8938 10.9317 22.7338 10.5861 21.7868 10.1884C21.1429 9.90429 20.5274 9.57758 19.9402 9.20826C19.3531 8.83894 18.6808 8.37493 17.9232 7.81622C17.1656 7.25751 16.5785 6.84557 16.1618 6.58042C16.4649 8.83421 15.4042 10.4441 12.98 11.41C12.9989 13.5501 13.7613 15.3683 15.2669 16.8645C16.7726 18.3607 18.5861 19.1088 20.7073 19.1088C22.8285 19.1088 24.6419 18.3607 26.1476 16.8645C27.6533 15.3683 28.4156 13.5596 28.4345 11.4384Z" fill="#65FCF2"/>
</g>
<defs>
<clipPath id="clip0_24_750">
<rect width="40" height="41.8182" fill="white" transform="translate(0.707275 0.472412)"/>
</clipPath>
</defs>
</svg>
