<svg width="51" height="51" viewBox="0 0 51 51" fill="none" xmlns="http://www.w3.org/2000/svg">
<circle cx="25.062" cy="25.751" r="25" fill="#65FCF2"/>
<path d="M25.062 12.4177C17.702 12.4177 11.7286 18.3911 11.7286 25.7511C11.7286 33.1111 17.702 39.0844 25.062 39.0844C32.422 39.0844 38.3953 33.1111 38.3953 25.7511C38.3953 18.3911 32.422 12.4177 25.062 12.4177ZM31.2486 21.4844C31.0486 23.5911 30.182 28.7111 29.742 31.0711C29.5553 32.0711 29.182 32.4044 28.8353 32.4444C28.062 32.5111 27.4753 31.9377 26.7286 31.4444C25.5553 30.6711 24.8886 30.1911 23.7553 29.4444C22.4353 28.5777 23.2886 28.0977 24.0486 27.3244C24.2486 27.1244 27.662 24.0177 27.7286 23.7377C27.7379 23.6953 27.7367 23.6513 27.725 23.6095C27.7134 23.5676 27.6918 23.5293 27.662 23.4977C27.582 23.4311 27.4753 23.4577 27.382 23.4711C27.262 23.4977 25.3953 24.7377 21.7553 27.1911C21.222 27.5511 20.742 27.7377 20.3153 27.7244C19.8353 27.7111 18.9286 27.4577 18.2486 27.2311C17.4086 26.9644 16.7553 26.8177 16.8086 26.3511C16.8353 26.1111 17.1686 25.8711 17.7953 25.6177C21.6886 23.9244 24.2753 22.8044 25.5686 22.2711C29.2753 20.7244 30.0353 20.4577 30.542 20.4577C30.6486 20.4577 30.902 20.4844 31.062 20.6177C31.1953 20.7244 31.2353 20.8711 31.2486 20.9777C31.2353 21.0577 31.262 21.2977 31.2486 21.4844Z" fill="black"/>
</svg>
