<svg width="51" height="51" viewBox="0 0 51 51" fill="none" xmlns="http://www.w3.org/2000/svg">
<circle cx="25.062" cy="25.751" r="25" fill="#65FCF2"/>
<path d="M11.7339 39.0844L13.5366 32.4604C12.3488 30.4242 11.7247 28.1084 11.7286 25.7511C11.7286 18.3871 17.6979 12.4177 25.0619 12.4177C32.4259 12.4177 38.3953 18.3871 38.3953 25.7511C38.3953 33.1151 32.4259 39.0844 25.0619 39.0844C22.7056 39.0882 20.3908 38.4646 18.3553 37.2777L11.7339 39.0844ZM20.2499 19.4951C20.0777 19.5057 19.9095 19.5511 19.7553 19.6284C19.6106 19.7103 19.4786 19.8127 19.3633 19.9324C19.2033 20.0831 19.1126 20.2137 19.0153 20.3404C18.5225 20.9817 18.2574 21.7689 18.2619 22.5777C18.2646 23.2311 18.4353 23.8671 18.7019 24.4617C19.2473 25.6644 20.1446 26.9377 21.3299 28.1177C21.6153 28.4017 21.8939 28.6871 22.1939 28.9524C23.6651 30.2477 25.4183 31.1818 27.3139 31.6804L28.0726 31.7964C28.3193 31.8097 28.5659 31.7911 28.8139 31.7791C29.2022 31.759 29.5814 31.6539 29.9246 31.4711C30.0992 31.3811 30.2696 31.2832 30.4353 31.1777C30.4353 31.1777 30.4926 31.1404 30.6019 31.0577C30.7819 30.9244 30.8926 30.8297 31.0419 30.6737C31.1526 30.5591 31.2486 30.4244 31.3219 30.2711C31.4259 30.0537 31.5299 29.6391 31.5726 29.2937C31.6046 29.0297 31.5953 28.8857 31.5913 28.7964C31.5859 28.6537 31.4673 28.5057 31.3379 28.4431L30.5619 28.0951C30.5619 28.0951 29.4019 27.5897 28.6939 27.2671C28.6193 27.2345 28.5393 27.216 28.4579 27.2124C28.3667 27.203 28.2745 27.2133 28.1876 27.2425C28.1007 27.2717 28.021 27.3192 27.9539 27.3817V27.3791C27.9473 27.3791 27.8579 27.4551 26.8939 28.6231C26.8386 28.6974 26.7624 28.7536 26.675 28.7845C26.5876 28.8153 26.493 28.8195 26.4033 28.7964C26.3164 28.7732 26.2313 28.7438 26.1486 28.7084C25.9833 28.6391 25.9259 28.6124 25.8126 28.5631L25.8059 28.5604C25.0431 28.2274 24.3369 27.7775 23.7126 27.2271C23.5446 27.0804 23.3886 26.9204 23.2286 26.7657C22.704 26.2634 22.2469 25.6951 21.8686 25.0751L21.7899 24.9484C21.7334 24.8633 21.6877 24.7715 21.6539 24.6751C21.6033 24.4791 21.7353 24.3217 21.7353 24.3217C21.7353 24.3217 22.0593 23.9671 22.2099 23.7751C22.3354 23.6155 22.4524 23.4495 22.5606 23.2777C22.7179 23.0244 22.7673 22.7644 22.6846 22.5631C22.3113 21.6511 21.9246 20.7431 21.5273 19.8417C21.4486 19.6631 21.2153 19.5351 21.0033 19.5097C20.9313 19.5017 20.8593 19.4937 20.7873 19.4884C20.6082 19.4795 20.4288 19.4813 20.2499 19.4937V19.4951Z" fill="black"/>
</svg>
