<svg width="51" height="51" viewBox="0 0 51 51" fill="none" xmlns="http://www.w3.org/2000/svg">
<circle cx="25.062" cy="25.751" r="25" fill="#65FCF2"/>
<g clip-path="url(#clip0_26_1040)">
<path d="M40.852 19.0504C40.852 16.2379 38.7832 13.9754 36.227 13.9754C32.7645 13.8135 29.2332 13.751 25.6245 13.751H24.4995C20.8995 13.751 17.362 13.8135 13.8995 13.976C11.3495 13.976 9.28071 16.251 9.28071 19.0635C9.12446 21.2879 9.05821 23.5129 9.06196 25.7379C9.05571 27.9629 9.12655 30.1899 9.27446 32.4191C9.27446 35.2316 11.3432 37.5129 13.8932 37.5129C17.5307 37.6816 21.262 37.7566 25.0557 37.7504C28.8557 37.7629 32.5765 37.6837 36.2182 37.5129C38.7745 37.5129 40.8432 35.2316 40.8432 32.4191C40.9932 30.1879 41.062 27.9629 41.0557 25.7316C41.0699 23.5066 41.002 21.2795 40.852 19.0504ZM21.9995 31.8691V19.5879L31.062 25.7254L21.9995 31.8691Z" fill="black"/>
</g>
<defs>
<clipPath id="clip0_26_1040">
<rect width="32" height="32" fill="white" transform="translate(9.06195 9.75098)"/>
</clipPath>
</defs>
</svg>
