<svg width="82" height="82" viewBox="0 0 82 82" fill="none" xmlns="http://www.w3.org/2000/svg">
<g clip-path="url(#clip0_116_129951)">
<path d="M41.0454 0.75293C18.6587 0.75293 0.509247 18.9008 0.509247 41.2891C0.509247 63.6774 18.6587 81.8253 41.0454 81.8253C63.4322 81.8253 81.5816 63.6759 81.5816 41.2891C81.5816 18.9024 63.4322 0.75293 41.0454 0.75293Z" fill="#DD4247"/>
<path d="M19.5991 64.2201C43.9255 64.2201 63.6457 44.4999 63.6457 20.175C63.6496 15.4314 62.886 10.7183 61.3846 6.21854C55.2082 2.62811 48.1894 0.741837 41.0452 0.752486C18.6585 0.752486 0.509048 18.9019 0.509048 41.2887C0.498008 48.6489 2.50049 55.872 6.29971 62.1759C10.602 63.5345 15.0874 64.2239 19.5991 64.2201V64.2201Z" fill="#E55353"/>
<path d="M57.7777 58.0206C56.9354 58.8625 55.7931 59.3354 54.6021 59.3354C53.4112 59.3354 52.2689 58.8625 51.4265 58.0206L41.0455 47.6395L30.6644 58.0206C29.822 58.8625 28.6798 59.3354 27.4888 59.3354C26.2978 59.3354 25.1556 58.8625 24.3132 58.0206C23.4713 57.1782 22.9984 56.036 22.9984 54.845C22.9984 53.654 23.4713 52.5118 24.3132 51.6694L34.6943 41.2883L24.3132 30.9073C23.4713 30.0649 22.9984 28.9226 22.9984 27.7317C22.9984 26.5407 23.4713 25.3985 24.3132 24.5561C25.1556 23.7142 26.2978 23.2412 27.4888 23.2412C28.6798 23.2412 29.822 23.7142 30.6644 24.5561L41.0455 34.9371L51.4265 24.5561C52.2689 23.7142 53.4112 23.2412 54.6021 23.2412C55.7931 23.2412 56.9354 23.7142 57.7777 24.5561C58.6197 25.3985 59.0926 26.5407 59.0926 27.7317C59.0926 28.9226 58.6197 30.0649 57.7777 30.9073L47.3967 41.2883L57.7777 51.6694C58.6197 52.5118 59.0926 53.654 59.0926 54.845C59.0926 56.036 58.6197 57.1782 57.7777 58.0206V58.0206Z" fill="white"/>
</g>
<defs>
<clipPath id="clip0_116_129951">
<rect width="81.0724" height="81.0724" fill="white" transform="translate(0.509277 0.75293)"/>
</clipPath>
</defs>
</svg>
