<svg width="74" height="74" viewBox="0 0 74 74" fill="none" xmlns="http://www.w3.org/2000/svg">
<g clip-path="url(#clip0_116_129966)">
<path d="M36.7826 0.146973C16.4687 0.146973 -0.000274658 16.6102 -0.000274658 36.9298C-0.000274658 57.2495 16.4687 73.7127 36.7826 73.7127C57.0965 73.7127 73.5654 57.2394 73.5654 36.9298C73.5654 16.6202 57.0965 0.146973 36.7826 0.146973Z" fill="#69C79C"/>
<path d="M-8.7911e-05 36.9296C-0.00839124 43.0095 1.49719 48.9958 4.38081 54.3483C8.05461 55.427 11.8641 55.9732 15.693 55.9705C37.8058 55.9705 55.7317 38.0446 55.7317 15.9318C55.735 12.0422 55.1716 8.1729 54.0592 4.44577C48.7417 1.61338 42.8075 0.136746 36.7828 0.146779C16.4689 0.146779 -8.7911e-05 16.61 -8.7911e-05 36.9296Z" fill="#7FD5AE"/>
<path d="M57.7607 30.8349L35.6522 54.0527C35.0497 54.6847 34.3258 55.1887 33.5239 55.5343C32.722 55.88 31.8586 56.0602 30.9854 56.0642H30.9566C30.0883 56.0645 29.2287 55.8902 28.429 55.5518C27.6293 55.2134 26.9058 54.7178 26.3013 54.0943L14.5696 42.0106C13.9634 41.4021 13.4842 40.6793 13.1596 39.8842C12.835 39.089 12.6716 38.2373 12.6788 37.3784C12.6861 36.5196 12.8638 35.6707 13.2017 34.8811C13.5397 34.0915 14.031 33.3769 14.6474 32.7788C15.2637 32.1806 15.9927 31.7108 16.7921 31.3967C17.5914 31.0825 18.4452 30.9302 19.3039 30.9487C20.1625 30.9672 21.009 31.156 21.7941 31.5042C22.5792 31.8524 23.2873 32.3531 23.8774 32.9772L30.9107 40.2217L48.3667 21.8907C48.9515 21.2636 49.6547 20.7588 50.4359 20.4053C51.217 20.0518 52.0604 19.8567 52.9174 19.8312C53.7744 19.8058 54.628 19.9505 55.4287 20.257C56.2294 20.5635 56.9614 21.0258 57.5823 21.617C58.2033 22.2082 58.7008 22.9166 59.0462 23.7014C59.3916 24.4861 59.578 25.3315 59.5946 26.1887C59.6112 27.046 59.4576 27.8979 59.1429 28.6955C58.8281 29.493 58.3583 30.2201 57.7607 30.8349V30.8349Z" fill="white"/>
</g>
<defs>
<clipPath id="clip0_116_129966">
<rect width="73.5657" height="73.5657" fill="white" transform="translate(3.05176e-05 0.146973)"/>
</clipPath>
</defs>
</svg>
